<svg width="10" height="12" viewBox="0 0 10 12" fill="none" xmlns="http://www.w3.org/2000/svg">
<path d="M0.916935 8.39166C1.47746 8.50598 1.99198 8.7826 2.39649 9.18711C2.801 9.59161 3.07762 10.1061 3.19194 10.6667M0.916935 6.02916C2.10156 6.16092 3.2061 6.69185 4.04892 7.53468C4.89174 8.3775 5.42268 9.48203 5.55444 10.6667M2.0253 3.66666V2.49999C2.0253 2.19058 2.14821 1.89383 2.36701 1.67504C2.5858 1.45624 2.88254 1.33333 3.19196 1.33333H7.85863C8.16805 1.33333 8.4648 1.45624 8.68359 1.67504C8.90238 1.89383 9.0253 2.19058 9.0253 2.49999V9.49999C9.0253 9.80941 8.90238 10.1062 8.68359 10.325C8.4648 10.5437 8.16805 10.6667 7.85863 10.6667" stroke="#0F766E" stroke-width="1.5" stroke-linecap="round" stroke-linejoin="round"/>
</svg>
