<svg width="120" height="120" viewBox="0 0 120 120" fill="none" xmlns="http://www.w3.org/2000/svg">
    <path d="M95 70C102.45 62.7 110 53.95 110 42.5C110 35.2065 107.103 28.2118 101.945 23.0546C96.7882 17.8973 89.7935 15 82.5 15C73.7 15 67.5 17.5 60 25C52.5 17.5 46.3 15 37.5 15C30.2065 15 23.2118 17.8973 18.0546 23.0546C12.8973 28.2118 10 35.2065 10 42.5C10 54 17.5 62.75 25 70L60 105L95 70Z" fill="#00B8D9" stroke="#212B36" stroke-width="2" stroke-linecap="round" stroke-linejoin="round"/>
    <path d="M101.944 23.0546C107.101 28.2118 109.998 35.2065 109.998 42.5C109.998 50.6299 106.198 57.1206 104.298 59.3497L89.4981 46.0497C86.9038 43.6957 83.5262 42.3917 80.0231 42.3917C76.52 42.3917 73.1423 43.6957 70.5481 46.0497L60.1981 55.5497C55.8481 59.4497 49.2981 59.2997 45.1981 55.1997C44.1822 54.1912 43.3759 52.9916 42.8257 51.6701C42.2755 50.3486 41.9922 48.9312 41.9922 47.4997C41.9922 46.0683 42.2755 44.6509 42.8257 43.3294C43.3759 42.0079 44.1822 40.8083 45.1981 39.7997L59.9985 25C67.4985 17.5 73.6985 15 82.4985 15C89.7919 15 96.7867 17.8973 101.944 23.0546Z" fill="#FF8438" stroke="#212B36" stroke-width="2" stroke-linecap="round" stroke-linejoin="round"/>
    <path d="M59.9981 24.9995L45.1981 39.7995C44.1822 40.808 43.3759 42.0076 42.8257 43.3292C42.2755 44.6507 41.9922 46.068 41.9922 47.4995C41.9922 48.931 42.2755 50.3483 42.8257 51.6699C43.3759 52.9914 44.1822 54.191 45.1981 55.1995C49.2981 59.2995 55.8481 59.4495 60.1981 55.5495L70.5481 46.0495C73.1423 43.6955 76.52 42.3915 80.0231 42.3915C83.5262 42.3915 86.9038 43.6955 89.4981 46.0495L104.298 59.3495" stroke="#212B36" stroke-width="2" stroke-linecap="round" stroke-linejoin="round"/>
    <path d="M90 75.0005L80 65.0005" stroke="#212B36" stroke-width="2" stroke-linecap="round" stroke-linejoin="round"/>
    <path d="M75 90.0005L65 80.0005" stroke="#212B36" stroke-width="2" stroke-linecap="round" stroke-linejoin="round"/>
</svg>
