<svg width="20" height="20" viewBox="0 0 20 20" fill="none" xmlns="http://www.w3.org/2000/svg">
<path d="M16.3652 4.22363C16.5529 4.15461 16.7594 4.15433 16.9473 4.22266C17.1351 4.29098 17.2931 4.42328 17.3926 4.59668C17.4692 4.72663 17.4823 4.78769 17.4814 5C17.4814 5.17667 17.4633 5.28469 17.4199 5.36719C17.3293 5.53524 8.09625 14.7742 7.89941 14.8945C7.77191 14.9704 7.71152 14.9833 7.49902 14.9824C7.32256 14.9824 7.21527 14.9641 7.13281 14.9209C6.97281 14.8376 2.71699 10.5887 2.60449 10.4004C2.52868 10.2738 2.51562 10.2116 2.51562 10C2.51564 9.78852 2.52966 9.72663 2.60547 9.59668C2.71314 9.41228 2.88666 9.27546 3.09082 9.21289C3.2866 9.15375 3.37992 9.15571 3.60156 9.2207C3.77561 9.27153 3.85118 9.34182 5.64062 11.1279L7.5 12.9814L11.8574 8.62891C15.6558 4.83389 16.2336 4.26888 16.3652 4.22363Z" fill="#4ECC5C"/>
</svg>
