<svg width="20" height="20" viewBox="0 0 20 20" fill="none" xmlns="http://www.w3.org/2000/svg">
<path d="M10 2.5L8.41667 7.33333C8.33559 7.58435 8.19609 7.81253 8.00964 7.99913C7.82319 8.18572 7.59512 8.3254 7.34417 8.40667L2.5 10L7.33333 11.5833C7.58435 11.6644 7.81253 11.8039 7.99913 11.9904C8.18572 12.1768 8.3254 12.4049 8.40667 12.6558L10 17.5L11.5833 12.6667C11.6644 12.4157 11.8039 12.1875 11.9904 12.0009C12.1768 11.8143 12.4049 11.6746 12.6558 11.5933L17.5 10L12.6667 8.41667C12.4157 8.33559 12.1875 8.19609 12.0009 8.00964C11.8143 7.82319 11.6746 7.59512 11.5933 7.34417L10 2.5Z" stroke="white" stroke-width="1.67" stroke-linecap="round" stroke-linejoin="round"/>
</svg>
