<svg width="20" height="20" viewBox="0 0 20 20" fill="none" xmlns="http://www.w3.org/2000/svg">
<path d="M14.7129 4.22168C14.8987 4.15448 15.1028 4.15494 15.2881 4.22363C15.4735 4.29244 15.6285 4.42537 15.7256 4.59766C15.8022 4.72756 15.8153 4.78855 15.8145 5.00098C15.8144 5.17747 15.7962 5.28473 15.7529 5.36719C15.7196 5.43135 14.6774 6.50059 13.4375 7.74219L11.1836 10.001L13.4375 12.2588C14.677 13.4999 15.7164 14.5674 15.748 14.6299C15.823 14.779 15.8487 15.0524 15.8037 15.2207C15.7504 15.4157 15.5942 15.6153 15.4092 15.7236C15.2717 15.8044 15.214 15.8172 14.999 15.8164C14.8226 15.8164 14.7153 15.7981 14.6328 15.7549C14.5687 15.7216 13.4993 14.6793 12.2578 13.4395L9.99902 11.1846L7.74121 13.4395C6.50042 14.6786 5.43316 15.7178 5.37012 15.75C5.221 15.825 4.94764 15.8496 4.7793 15.8047C4.58437 15.7514 4.38473 15.596 4.27637 15.4111C4.19557 15.2737 4.18277 15.2158 4.18359 15.001C4.18359 14.8243 4.20178 14.7163 4.24512 14.6338C4.28146 14.5667 5.32243 13.4986 6.56055 12.2588L8.81445 10.001L6.56055 7.74219C5.32063 6.5006 4.27845 5.43135 4.24512 5.36719C4.20183 5.28474 4.18361 5.17744 4.18359 5.00098C4.18276 4.78857 4.19588 4.72754 4.27246 4.59766C4.37408 4.42523 4.53873 4.28531 4.72363 4.21777C4.90552 4.15507 5.10403 4.15682 5.28516 4.22168C5.43432 4.27185 5.65834 4.48561 7.72363 6.5459L9.99902 8.81543L12.2744 6.5459C14.3394 4.48588 14.5637 4.27189 14.7129 4.22168Z" fill="#F86B3F"/>
</svg>
